HIERARCHY
ROOT ui
{
	 OFFSET 0 0 0
	 CHANNELS 3 XPosition YPosition Z Position
	 EndSite
	 {
	 OFFSET 0 -1 0
	 }
}
ROOT li
{
	 OFFSET 0 0 0
	 CHANNELS 3 XPosition YPosition Z Position
	 EndSite
	 {
	 OFFSET 0 -1 0
	 }
}
ROOT ul
{
	 OFFSET 0 0 0
	 CHANNELS 3 XPosition YPosition Z Position
	 EndSite
	 {
	 OFFSET 0 -1 0
	 }
}
ROOT ll
{
	 OFFSET 0 0 0
	 CHANNELS 3 XPosition YPosition Z Position
	 EndSite
	 {
	 OFFSET 0 -1 0
	 }
}
ROOT tt
{
	 OFFSET 0 0 0
	 CHANNELS 3 XPosition YPosition Z Position
	 EndSite
	 {
	 OFFSET 0 -1 0
	 }
}
ROOT tb
{
	 OFFSET 0 0 0
	 CHANNELS 3 XPosition YPosition Z Position
	 EndSite
	 {
	 OFFSET 0 -1 0
	 }
}
ROOT td
{
	 OFFSET 0 0 0
	 CHANNELS 3 XPosition YPosition Z Position
	 EndSite
	 {
	 OFFSET 0 -1 0
	 }
}
ROOT v
{
	 OFFSET 0 0 0
	 CHANNELS 3 XPosition YPosition Z Position
	 EndSite
	 {
	 OFFSET 0 -1 0
	 }
}
ROOT bn
{
	 OFFSET 0 0 0
	 CHANNELS 3 XPosition YPosition Z Position
	 EndSite
	 {
	 OFFSET 0 -1 0
	 }
}
MOTION
Frames: 13
Frame Time: 0.002
-0.0037627210617065428	-5.783230066299438E-4	0		0.4877767639160156	-2.36069140625	0		-0.8731087036132813	0.17326509094238282	0		-0.4669400634765625	-2.20949365234375	0		1.1222454833984374	-0.8895927124023437	0		2.570705078125	-0.0545157356262207	0		4.05046484375	0.29600234985351564	0		5.75995703125	0.48890023803710936	0		-0.26531146240234377	5.9423310546875	0		
0.005314373016357422	-0.0031413819789886475	0		0.4738583984375	-2.3648818359375	0		-0.863018310546875	0.1716737060546875	0		-0.4400086975097656	-2.22334765625	0		1.14385693359375	-0.922342529296875	0		2.566927490234375	-0.047836990356445314	0		4.044460205078125	0.288735595703125	0		5.76421240234375	0.4725806274414063	0		-0.26330172729492185	5.94087548828125	0		
0.00944544792175293	-6.424720287322998E-4	0		0.45514276123046876	-2.356008056640625	0		-0.9618466796875	0.17778575134277344	0		-0.4677106323242187	-2.2133525390625	0		1.123774658203125	-0.9344344482421875	0		2.5787890625	-0.06240291976928711	0		4.045537353515625	0.28837692260742187	0		5.76844873046875	0.456323486328125	0		-0.2310752716064453	5.957921875	0		
0.010501666069030762	-0.001110874056816101	0		0.4744174194335937	-2.34774755859375	0		-0.8568252563476563	0.1746391143798828	0		-0.44148907470703125	-2.2082333984375	0		1.173697509765625	-0.94564013671875	0		2.56010302734375	-0.04647141647338867	0		4.046583984375	0.2880426025390625	0		5.7622734375	0.487252685546875	0		-0.23316912841796875	5.96049267578125	0		
0.008479846954345702	-0.004544857025146484	0		0.472465576171875	-2.353161376953125	0		-0.864790771484375	0.17526181030273438	0		-0.44544674682617186	-2.213655029296875	0		1.1615125732421876	-0.9618643188476562	0		2.53372314453125	-0.07241339874267579	0		4.035534912109375	0.2839254150390625	0		5.76007177734375	0.47484866333007814	0		-0.23337020874023437	5.96201611328125	0		
-0.01738636016845703	0.00438604211807251	0		0.49952871704101565	-2.3570380859375	0		-0.8588907470703125	0.16964466857910157	0		-0.45419775390625	-2.205015625	0		1.1551912841796874	-0.9851829223632812	0		2.54273046875	-0.07189804077148437	0		4.036508544921875	0.283646484375	0		5.7578447265625	0.4625224609375	0		-0.26005661010742187	5.93893798828125	0		
-0.019502416610717773	-6.910400092601776E-5	0		0.44772259521484375	-2.3506787109375	0		-0.9578641357421875	0.17565591430664063	0		-0.4303517150878906	-2.220904052734375	0		1.170025146484375	-0.9968305053710937	0		2.5454931640625	-0.08427104949951172	0		4.038233642578125	0.2703823547363281	0		5.75851904296875	0.4622724304199219	0		-0.23212301635742189	5.960994140625	0		
0.009441802024841309	0.00198497200012207	0		0.48867514038085935	-2.358777587890625	0		-0.8489576416015625	0.17539604187011718	0		-0.4252167663574219	-2.2165048828125	0		1.1628411865234376	-1.00712939453125	0		2.540572265625	-0.07350669860839844	0		4.039115234375	0.27015969848632815	0		5.7626259765625	0.4463908081054688	0		-0.23164256286621093	5.960470703125	0		
-0.014685871124267579	0.0028624849319458007	0		0.4818834533691406	-2.348128173828125	0		-0.8440556640625	0.178756591796875	0		-0.4449247741699219	-2.199724853515625	0		1.2185181884765626	-1.0244022216796875	0		2.53604443359375	-0.098740478515625	0		4.036057373046875	0.2770225830078125	0		5.7597685546875	0.4619775390625	0		-0.3938980712890625	5.9194609375	0		
0.008056814193725587	-0.0019910000562667848	0		0.5317256469726562	-2.3593564453125	0		-0.851370361328125	0.17129768371582033	0		-0.44596530151367186	-2.202243896484375	0		1.2061651611328126	-1.0406114501953125	0		2.53998291015625	-0.09109008026123047	0		4.033564208984375	0.25889337158203124	0		5.76090185546875	0.4376703796386719	0		-0.39358273315429687	5.9189150390625	0		
-0.013117348670959473	0.0018333189487457276	0		0.47977825927734374	-2.35401025390625	0		-0.850623779296875	0.17070903015136718	0		-0.414135986328125	-2.211271728515625	0		1.3226824951171876	-1.063796875	0		2.52150927734375	-0.1070863037109375	0		4.0294111328125	0.26581118774414064	0		5.7557392578125	0.43786865234375	0		-0.2609898681640625	5.940337890625	0		
0.009536640167236328	-0.0030158810615539553	0		0.4827608337402344	-2.35150927734375	0		-0.9189138793945313	0.1711697235107422	0		-0.43525546264648435	-2.214487060546875	0		1.3133173828125	-1.076032470703125	0		2.5043154296875	-0.10209015655517578	0		4.0270126953125	0.25972021484375	0		5.7562509765625	0.43790460205078124	0		-0.2588714904785156	5.9367705078125	0		
-0.003755182981491089	-0.001313438057899475	0		0.4706392211914063	-2.35377490234375	0		-0.9060894165039063	0.18138571166992187	0		-0.4204239807128906	-2.219252197265625	0		1.312841552734375	-1.093396728515625	0		2.53064990234375	-0.12574585723876952	0		4.035647216796875	0.25848458862304685	0		5.76020068359375	0.4222966613769531	0		-0.23044908142089843	5.9578076171875	0		
